# xmcd
#
# Track frame offsets: 
#        150
#        2328
#        14908
#        26565
#        32330
#        52725
#        58213
#        75473
#        77383
#        98160
#        123473
#        139308
#        159593
#        182752
#        191548
#        194377
#
# Disc length: 2752 seconds
#
# Revision: 3
# Processed by: cddbd v1.5.2PL0 Copyright (c) Steve Scherf et al.
# Submitted via: ExactAudioCopy v0.99pb5
#
DISCID=c30abe10
DTITLE=Various Artist - Music From And Inspired By 12 Years A Slave
DYEAR=2013
DGENRE=Soundtrack
TTITLE0=Tim Fain - Devil's Dream
TTITLE1=John Legend - Roll Jordan Roll
TTITLE2=Gary Clark Jr. - Freight Train
TTITLE3=Tim Fain and Caitlin Sullivan - Yarney's Waltz
TTITLE4=Alabama Shakes - Driva Man
TTITLE5=David Hughey and Roosevelt Credit - My Lord Sunshine (Sunrise)
TTITLE6=John Legend feat, Fink - Move
TTITLE7=Hans Zimmer - Washington
TTITLE8=Gary Clark Jr. - (In The Evening) When The Sun Goes Down
TTITLE9=Alicia Keys - Queen Of The Field (Patsey's Song)
TTITLE10=Hans Zimmer - Solomon
TTITLE11=Laura Mvula - Little Girl Blue
TTITLE12=Chris Cornell feat, Joy Williams - Misery Chain
TTITLE13=Topsy Chapman feat. Chiwetel Ejiofor and Cast - Roll Jordan R
TTITLE13=oll
TTITLE14=Tim Fain - Money Musk
TTITLE15=Cody ChesnuTT - What Does Freedom Mean (To A Free Man)
EXTD=YEAR: 2013
EXTT0=
EXTT1=
EXTT2=
EXTT3=
EXTT4=
EXTT5=
EXTT6=
EXTT7=
EXTT8=
EXTT9=
EXTT10=
EXTT11=
EXTT12=
EXTT13=
EXTT14=
EXTT15=
PLAYORDER=
